<svg xmlns="http://www.w3.org/2000/svg" viewBox="0 0 1218 310" width="1218" height="310" role="img" aria-label="MUNDOZYL"><title>MUNDOZYL</title><rect width="1218" height="310" fill="#0B2545"/><circle cx="155.0" cy="155.0" r="90.25" fill="none" stroke="#FFFFFF" stroke-width="9.50"/><path d="M105.36,155.00a49.64,90.25 0 1,0 99.28,0a49.64,90.25 0 1,0 -99.28,0Z" fill="none" stroke="#FFFFFF" stroke-width="6.65" stroke-linecap="round"/><line x1="79.63" y1="105.36" x2="230.37" y2="105.36" fill="none" stroke="#FFFFFF" stroke-width="6.65" stroke-linecap="round"/><line x1="79.63" y1="204.64" x2="230.37" y2="204.64" fill="none" stroke="#FFFFFF" stroke-width="6.65" stroke-linecap="round"/><line x1="113.54" y1="105.36" x2="196.46" y2="105.36" stroke="#5AA9FF" stroke-width="9.03" stroke-linecap="round"/><line x1="196.46" y1="105.36" x2="113.54" y2="204.64" stroke="#5AA9FF" stroke-width="9.03" stroke-linecap="round"/><line x1="113.54" y1="204.64" x2="196.46" y2="204.64" stroke="#5AA9FF" stroke-width="9.03" stroke-linecap="round"/><circle cx="113.54" cy="105.36" r="19.00" fill="#0B2545"/><circle cx="113.54" cy="105.36" r="12.83" fill="#5AA9FF"/><circle cx="196.46" cy="105.36" r="19.00" fill="#0B2545"/><circle cx="196.46" cy="105.36" r="12.83" fill="#5AA9FF"/><circle cx="113.54" cy="204.64" r="19.00" fill="#0B2545"/><circle cx="113.54" cy="204.64" r="12.83" fill="#5AA9FF"/><circle cx="196.46" cy="204.64" r="19.00" fill="#0B2545"/><circle cx="196.46" cy="204.64" r="12.83" fill="#5AA9FF"/><path d="M312.32876712328766 205.0V105.0H338.90410958904107L363.972602739726 164.72602739726028H366.43835616438355L391.3698630136986 105.0H418.35616438356163V205.0H399.04109589041093V119.65753424657535L401.5068493150685 119.93150684931507L374.45205479452056 184.58904109589042H354.6575342465753L327.4657534246575 119.93150684931507L330.13698630136986 119.65753424657535V205.0ZM486.917808219178 207.6027397260274Q472.945205479452 207.6027397260274 463.3561643835616 202.2945205479452Q453.7671232876712 196.986301369863 448.80136986301363 187.32876712328766Q443.8356164383561 177.67123287671234 443.8356164383561 164.65753424657535V105.0H463.2876712328767V165.75342465753425Q463.2876712328767 172.87671232876713 466.0273972602739 178.25342465753425Q468.7671232876712 183.63013698630138 474.04109589041093 186.57534246575344Q479.31506849315065 189.5205479452055 486.917808219178 189.5205479452055Q494.5205479452054 189.5205479452055 499.7602739726027 186.6095890410959Q504.99999999999994 183.6986301369863 507.70547945205476 178.35616438356163Q510.4109589041095 173.013698630137 510.4109589041095 165.75342465753425V105.0H529.8630136986301V164.65753424657535Q529.8630136986301 177.67123287671234 524.9657534246575 187.32876712328766Q520.0684931506848 196.986301369863 510.5136986301369 202.2945205479452Q500.958904109589 207.6027397260274 486.917808219178 207.6027397260274ZM555.3424657534247 205.0V105.0H587.1917808219179L629.2465753424658 188.83561643835617H633.8356164383562L631.0958904109589 191.3013698630137V105.0H649.4520547945206V205.0H617.3287671232877L575.2739726027397 121.16438356164385H570.6849315068494L573.4246575342466 118.69863013698631V205.0ZM693.5616438356163 205.54794520547946V187.46575342465752H714.2465753424657Q721.986301369863 187.46575342465752 728.0821917808219 185.06849315068493Q734.1780821917807 182.67123287671234 738.458904109589 178.32191780821918Q742.7397260273972 173.97260273972603 745.0 167.97945205479454Q747.2602739726027 161.986301369863 747.2602739726027 154.7945205479452Q747.2602739726027 147.26027397260273 745.0 141.3013698630137Q742.7397260273972 135.34246575342468 738.458904109589 131.09589041095893Q734.1780821917807 126.84931506849315 728.0821917808219 124.62328767123287Q721.986301369863 122.3972602739726 714.2465753424657 122.3972602739726H693.5616438356163V104.31506849315069H713.0136986301369Q726.5753424657534 104.31506849315069 736.6780821917807 108.32191780821918Q746.7808219178081 112.32876712328768 753.5273972602738 119.24657534246576Q760.2739726027396 126.16438356164385 763.6301369863013 134.96575342465755Q766.986301369863 143.76712328767124 766.986301369863 153.28767123287673V156.3013698630137Q766.986301369863 165.27397260273972 763.6301369863013 174.0753424657534Q760.2739726027396 182.87671232876713 753.5273972602738 189.96575342465752Q746.7808219178081 197.05479452054794 736.6780821917807 201.3013698630137Q726.5753424657534 205.54794520547946 713.0136986301369 205.54794520547946ZM676.8493150684931 205.54794520547946V104.31506849315069H696.3013698630136V205.54794520547946ZM834.041095890411 207.6027397260274Q820.4794520547946 207.6027397260274 810.5479452054794 202.84246575342468Q800.6164383561644 198.08219178082192 794.1095890410959 190.3082191780822Q787.6027397260274 182.53424657534248 784.4178082191781 173.56164383561645Q781.2328767123288 164.58904109589042 781.2328767123288 156.23287671232876V153.21917808219177Q781.2328767123288 144.04109589041096 784.5205479452055 134.96575342465752Q787.8082191780823 125.89041095890411 794.4520547945206 118.45890410958904Q801.095890410959 111.02739726027397 810.9589041095892 106.57534246575344Q820.8219178082193 102.12328767123289 834.041095890411 102.12328767123289Q847.1917808219179 102.12328767123289 857.0547945205481 106.57534246575344Q866.9178082191781 111.02739726027397 873.5616438356165 118.45890410958904Q880.2054794520548 125.89041095890411 883.527397260274 134.96575342465752Q886.8493150684932 144.04109589041096 886.8493150684932 153.21917808219177V156.23287671232876Q886.8493150684932 164.58904109589042 883.6301369863014 173.56164383561645Q880.4109589041096 182.53424657534248 873.9041095890411 190.3082191780822Q867.3972602739726 198.08219178082192 857.4657534246576 202.84246575342468Q847.5342465753425 207.6027397260274 834.041095890411 207.6027397260274ZM834.041095890411 189.5205479452055Q841.7123287671234 189.5205479452055 847.8424657534247 186.78082191780823Q853.9726027397261 184.04109589041096 858.2876712328767 179.21232876712327Q862.6027397260274 174.3835616438356 864.8630136986301 168.15068493150685Q867.1232876712329 161.91780821917808 867.1232876712329 154.86301369863014Q867.1232876712329 147.39726027397262 864.8287671232877 141.09589041095893Q862.5342465753425 134.7945205479452 858.2191780821918 130.1027397260274Q853.9041095890411 125.41095890410959 847.7739726027398 122.8082191780822Q841.6438356164384 120.2054794520548 834.041095890411 120.2054794520548Q826.3698630136987 120.2054794520548 820.2397260273973 122.8082191780822Q814.1095890410959 125.41095890410959 809.7945205479452 130.1027397260274Q805.4794520547946 134.7945205479452 803.2191780821918 141.09589041095893Q800.9589041095891 147.39726027397262 800.9589041095891 154.86301369863014Q800.9589041095891 161.91780821917808 803.2191780821918 168.15068493150685Q805.4794520547946 174.3835616438356 809.7945205479452 179.21232876712327Q814.1095890410959 184.04109589041096 820.2397260273973 186.78082191780823Q826.3698630136987 189.5205479452055 834.041095890411 189.5205479452055Z" fill="#FFFFFF"/><path d="M904.3890410958904 205.0V188.2876712328767L959.5945205479452 121.5068493150685L959.8684931506849 124.38356164383562L955.758904109589 118.9041095890411L958.4986301369863 121.02739726027397H905.9643835616438V105.0H981.1013698630137V121.7123287671233L925.758904109589 188.4931506849315L925.3479452054794 185.27397260273972L929.8684931506849 191.43835616438355L926.5808219178082 188.97260273972603H981.7178082191781V205.0ZM1021.3068493150685 166.78082191780823 991.2383561643835 105.0H1011.2383561643835L1034.1835616438357 153.4246575342466L1029.8 152.05479452054794H1042.813698630137L1038.1561643835616 153.4246575342466L1059.1835616438357 105.0H1078.0876712328768L1050.2109589041095 166.78082191780823ZM1026.2383561643835 205.0V163.76712328767124H1045.2794520547945V205.0ZM1094.66301369863 205.0V105.0H1114.1150684931506V205.0ZM1111.3753424657534 205.0V187.87671232876713H1154.5260273972601V205.0Z" fill="#5AA9FF"/></svg>
