<svg xmlns="http://www.w3.org/2000/svg" viewBox="0 0 678 478" width="678" height="478" role="img" aria-label="MUNDOZYL"><title>MUNDOZYL</title><path d="M302.24,180.00a36.79,82.87 0 1,0 73.58,0a36.79,82.87 0 1,0 -73.58,0Z" fill="none" stroke="#1668E3" stroke-width="15.78"/><line x1="256.16" y1="180.00" x2="421.90" y2="180.00" fill="none" stroke="#1668E3" stroke-width="15.78"/><circle cx="339.03" cy="180.00" r="96.79" fill="none" stroke="#0B2545" stroke-width="46.42"/><path d="M66.80555555555556 418.0V348.0H78.66666666666667L101.80555555555556 394.47222222222223L124.94444444444444 348.0H136.80555555555554V418.0H124.45833333333333V376.19444444444446L104.13888888888889 418.0H99.47222222222223L79.15277777777777 376.19444444444446V418.0ZM178.90277777777777 419.4583333333333Q170.44444444444446 419.4583333333333 164.02777777777777 416.03125Q157.61111111111111 412.6041666666667 154.01388888888889 406.38194444444446Q150.41666666666666 400.15972222222223 150.41666666666666 391.75V348.09722222222223L163.83333333333334 348.0V391.65277777777777Q163.83333333333334 395.1041666666667 165.0 397.9236111111111Q166.16666666666669 400.74305555555554 168.2326388888889 402.78472222222223Q170.29861111111111 404.8263888888889 173.0451388888889 405.9201388888889Q175.79166666666669 407.0138888888889 178.90277777777777 407.0138888888889Q182.11111111111111 407.0138888888889 184.8576388888889 405.89583333333337Q187.60416666666669 404.77777777777777 189.64583333333334 402.7361111111111Q191.6875 400.69444444444446 192.82986111111111 397.875Q193.97222222222223 395.05555555555554 193.97222222222223 391.65277777777777V348.0H207.38888888888889V391.75Q207.38888888888889 400.15972222222223 203.79166666666669 406.38194444444446Q200.19444444444446 412.6041666666667 193.77777777777777 416.03125Q187.36111111111111 419.4583333333333 178.90277777777777 419.4583333333333ZM221.0 418.0V348.0H234.41666666666669L264.84722222222223 394.6666666666667V348.0H278.2638888888889V418.0H264.84722222222223L234.41666666666669 371.3333333333333V418.0ZM291.875 418.0V348.0H314.52777777777777Q315.3541666666667 348.0 317.93055555555554 348.0486111111111Q320.50694444444446 348.09722222222223 322.8888888888889 348.3888888888889Q331.34722222222223 349.40972222222223 337.2291666666667 354.27083333333337Q343.11111111111114 359.13194444444446 346.17361111111114 366.61805555555554Q349.23611111111114 374.1041666666667 349.23611111111114 383.0Q349.23611111111114 391.8958333333333 346.17361111111114 399.38194444444446Q343.11111111111114 406.86805555555554 337.2291666666667 411.72916666666663Q331.34722222222223 416.59027777777777 322.8888888888889 417.6111111111111Q320.50694444444446 417.90277777777777 317.93055555555554 417.9513888888889Q315.3541666666667 418.0 314.52777777777777 418.0ZM305.2916666666667 405.55555555555554H314.52777777777777Q315.84027777777777 405.55555555555554 318.0763888888889 405.4826388888889Q320.3125 405.40972222222223 322.11111111111114 405.06944444444446Q326.68055555555554 404.1458333333333 329.57291666666663 400.79166666666663Q332.46527777777777 397.4375 333.85069444444446 392.72222222222223Q335.23611111111114 388.00694444444446 335.23611111111114 383.0Q335.23611111111114 377.75 333.80208333333337 373.03472222222223Q332.36805555555554 368.31944444444446 329.4513888888889 365.0625Q326.53472222222223 361.80555555555554 322.11111111111114 360.93055555555554Q320.3125 360.5416666666667 318.0763888888889 360.49305555555554Q315.84027777777777 360.44444444444446 314.52777777777777 360.44444444444446H305.2916666666667Z" fill="#0B2545"/><path d="M384.72,383.00a11.38,25.62 0 1,0 22.75,0a11.38,25.62 0 1,0 -22.75,0Z" fill="none" stroke="#1668E3" stroke-width="4.88"/><line x1="370.48" y1="383.00" x2="421.72" y2="383.00" fill="none" stroke="#1668E3" stroke-width="4.88"/><circle cx="396.10" cy="383.00" r="29.93" fill="none" stroke="#0B2545" stroke-width="14.35"/><path d="M442.9583333333333 418.0V416.34722222222223L476.20833333333337 360.34722222222223H445.875V348.0H499.34722222222223V349.65277777777777L466.2916666666667 405.55555555555554H498.375V418.0ZM528.125 418.0V389.5138888888889L504.20833333333337 348.0H519.6666666666667L534.8333333333334 374.34722222222223L550.0 348.0H565.4583333333334L541.5416666666667 389.5138888888889V418.0ZM573.2361111111112 418.0V348.0H586.4583333333334V405.65277777777777H616.5972222222223V418.0Z" fill="#1668E3"/></svg>
